<?xml version="1.0" encoding="utf-8"?>
<!-- Generator: Adobe Illustrator 19.1.0, SVG Export Plug-In . SVG Version: 6.00 Build 0)  -->
<svg version="1.1" xmlns="http://www.w3.org/2000/svg" xmlns:xlink="http://www.w3.org/1999/xlink" x="0px" y="0px"
	 viewBox="0 0 173.8 51.5" style="enable-background:new 0 0 173.8 51.5;" xml:space="preserve">
<style type="text/css">
	.st0{display:none;}
	.st1{display:inline;fill:#6D132C;}
	.st2{fill:#4AB749;}
	.st3{fill:none;stroke:#FFFFFF;stroke-width:2;stroke-miterlimit:10;}
</style>
<g id="Layer_2" class="st0">
	<rect x="-15" y="-12" class="st1" width="200" height="100"/>
</g>
<g id="Layer_1">
	<g>
		<path d="M9.6,39.2V13.4h8.3c3.2,0,5.2,0.1,6.2,0.4c1.5,0.4,2.7,1.2,3.7,2.5s1.5,3,1.5,5c0,1.6-0.3,2.9-0.9,4s-1.3,1.9-2.2,2.5
			s-1.8,1-2.7,1.2c-1.2,0.2-3,0.4-5.4,0.4h-3.4v9.7H9.6z M14.8,17.8v7.3h2.8c2.1,0,3.4-0.1,4.1-0.4s1.2-0.7,1.6-1.3s0.6-1.2,0.6-2
			c0-0.9-0.3-1.7-0.8-2.3s-1.2-1-2.1-1.1c-0.6-0.1-1.9-0.2-3.7-0.2H14.8z"/>
		<path d="M29.6,26.4c0-2.6,0.4-4.8,1.2-6.6c0.6-1.3,1.4-2.5,2.4-3.5s2.1-1.8,3.3-2.3c1.6-0.7,3.5-1,5.6-1c3.8,0,6.8,1.2,9.1,3.5
			s3.4,5.6,3.4,9.8c0,4.2-1.1,7.4-3.4,9.8s-5.3,3.5-9.1,3.5c-3.8,0-6.9-1.2-9.1-3.5S29.6,30.5,29.6,26.4z M35,26.3
			c0,2.9,0.7,5.1,2,6.6s3.1,2.3,5.1,2.3s3.8-0.7,5.1-2.2s2-3.7,2-6.7c0-3-0.6-5.2-1.9-6.6s-3-2.2-5.2-2.2s-3.9,0.7-5.2,2.2
			S35,23.3,35,26.3z"/>
		<path class="st2" d="M67.8,29.7v-4.3H79v10.3c-1.1,1.1-2.7,2-4.7,2.8c-2.1,0.8-4.2,1.2-6.3,1.2c-2.7,0-5-0.6-7-1.7
			c-2-1.1-3.5-2.7-4.5-4.9s-1.5-4.4-1.5-6.9c0-2.7,0.6-5.1,1.7-7.2s2.8-3.7,4.9-4.8c1.7-0.9,3.7-1.3,6.2-1.3c3.2,0,5.7,0.7,7.5,2
			s3,3.2,3.5,5.6l-5.2,1c-0.4-1.3-1-2.3-2-3s-2.3-1.1-3.8-1.1c-2.3,0-4.1,0.7-5.4,2.2s-2,3.6-2,6.4c0,3.1,0.7,5.4,2,6.9
			s3.1,2.3,5.3,2.3c1.1,0,2.2-0.2,3.3-0.6s2-0.9,2.8-1.6v-3.3H67.8z"/>
		<path class="st2" d="M79.5,39.2V13.4h11c2.8,0,4.8,0.2,6,0.7s2.2,1.3,3,2.5s1.1,2.5,1.1,4.1c0,1.9-0.6,3.5-1.7,4.8
			s-2.8,2.1-5.1,2.4c1.1,0.7,2.1,1.4,2.8,2.2s1.7,2.2,3,4.2l3.1,5h-6.2l-3.8-5.6c-1.3-2-2.2-3.3-2.7-3.8s-1-0.9-1.6-1.1
			s-1.4-0.3-2.6-0.3h-1.1v10.8H79.5z M84.7,24.3h3.9c2.5,0,4.1-0.1,4.7-0.3s1.1-0.6,1.5-1.1s0.5-1.2,0.5-1.9c0-0.9-0.2-1.6-0.7-2.1
			s-1.1-0.9-2-1c-0.4-0.1-1.7-0.1-3.8-0.1h-4.1V24.3z"/>
		<path class="st2" d="M103.3,39.2V13.4h19.1v4.4h-13.9v5.7h12.9v4.3h-12.9v7h14.4v4.3H103.3z"/>
		<path class="st2" d="M123.8,39.2V13.4h19.1v4.4H129v5.7h12.9v4.3H129v7h14.4v4.3H123.8z"/>
		<path class="st2" d="M144.2,39.2V13.4h5.1l10.5,17.2V13.4h4.8v25.8h-5.2l-10.4-16.8v16.8H144.2z"/>
	</g>
</g>
<g id="Layer_3">
	<rect x="1.7" y="2.5" class="st3" width="170.2" height="47.5"/>
</g>
</svg>
