<?xml version="1.0" encoding="utf-8"?>
<!-- Generator: Adobe Illustrator 19.1.0, SVG Export Plug-In . SVG Version: 6.00 Build 0)  -->
<svg version="1.1" xmlns="http://www.w3.org/2000/svg" xmlns:xlink="http://www.w3.org/1999/xlink" x="0px" y="0px"
	 viewBox="0 0 504 144" style="enable-background:new 0 0 504 144;" xml:space="preserve">
<style type="text/css">
	.st0{fill:#88C540;}
	.st1{fill:none;stroke:#E0EBB3;stroke-miterlimit:10;}
	.st2{fill:#4F4447;}
</style>
<g id="Layer_1">
	<path class="st0" d="M428.6,6c0,0-24.5,16.4,0,50.8C428.3,56.6,456.8,31.1,428.6,6z"/>
	<line class="st1" x1="428.6" y1="6" x2="428.6" y2="56.8"/>
	<polyline class="st1" points="422.5,15.6 428.8,20.4 435.2,15.6 	"/>
	<polyline class="st1" points="418.9,23.9 428.6,31.3 438.5,23.9 	"/>
	<polyline class="st1" points="419,35.2 428.5,43.7 438.1,35.2 	"/>
</g>
<g id="Layer_2">
	<g>
		<path class="st2" d="M27.4,9h34.2c6,0,11.4,0.5,16.3,1.6c4.8,1.1,9,2.9,12.4,5.3c3.5,2.5,6.1,5.6,8,9.5c1.9,3.8,2.8,8.5,2.8,13.9
			c0,5.8-1.1,10.7-3.3,14.7c-2.2,3.9-5.1,7.1-8.8,9.5c-3.7,2.4-8,4.2-13,5.3c-4.9,1.1-10.2,1.6-15.7,1.6H46v43.4H27.4V9z M59.1,54.7
			c3.1,0,6-0.2,8.7-0.7c2.8-0.4,5.2-1.2,7.4-2.4c2.2-1.1,3.9-2.7,5.2-4.7c1.3-2,1.9-4.5,1.9-7.7c0-3.1-0.6-5.6-1.9-7.5
			c-1.3-1.9-3-3.4-5.1-4.5c-2.1-1.1-4.5-1.8-7.3-2.1c-2.7-0.3-5.5-0.5-8.4-0.5H46v30H59.1z"/>
		<path class="st2" d="M93.1,78c0-5.6,1-10.7,3-15.3c2-4.6,4.8-8.5,8.2-11.8c3.5-3.3,7.5-5.8,12.3-7.5c4.7-1.8,9.8-2.7,15.1-2.7
			c5.3,0,10.4,0.9,15.1,2.7c4.7,1.8,8.8,4.3,12.3,7.5c3.5,3.3,6.2,7.2,8.2,11.8c2,4.6,3,9.7,3,15.3s-1,10.8-3,15.4
			c-2,4.6-4.8,8.6-8.2,11.9c-3.5,3.3-7.5,5.9-12.3,7.8c-4.7,1.9-9.8,2.8-15.1,2.8c-5.3,0-10.4-0.9-15.1-2.8
			c-4.7-1.9-8.8-4.5-12.3-7.8c-3.5-3.3-6.2-7.3-8.2-11.9C94.1,88.7,93.1,83.6,93.1,78z M111.2,78c0,2.8,0.4,5.5,1.3,8.3
			c0.8,2.8,2.1,5.2,3.8,7.4c1.7,2.2,3.8,3.9,6.4,5.3c2.6,1.4,5.6,2.1,9.2,2.1c3.6,0,6.6-0.7,9.2-2.1c2.6-1.4,4.7-3.2,6.4-5.3
			c1.7-2.2,2.9-4.6,3.8-7.4c0.8-2.8,1.3-5.5,1.3-8.3c0-2.8-0.4-5.5-1.3-8.2c-0.8-2.7-2.1-5.2-3.8-7.3c-1.7-2.2-3.8-3.9-6.4-5.3
			c-2.6-1.3-5.6-2-9.2-2c-3.6,0-6.6,0.7-9.2,2c-2.6,1.3-4.7,3.1-6.4,5.3c-1.7,2.2-2.9,4.6-3.8,7.3C111.6,72.5,111.2,75.2,111.2,78z"
			/>
		<path class="st0" d="M250,113.9c-6.3,1.9-13.6,2.8-21.9,2.8s-15.9-1.4-22.7-4.3c-6.8-2.9-12.6-6.8-17.5-11.8
			c-4.8-5-8.6-10.9-11.2-17.6c-2.6-6.8-3.9-14.1-3.9-22c0-7.9,1.3-15.2,4-22c2.7-6.8,6.4-12.6,11.2-17.5c4.8-4.9,10.5-8.7,17.2-11.5
			c6.7-2.8,14.1-4.1,22.2-4.1c7.1,0,13.6,1.1,19.5,3.3c5.9,2.2,11.1,5.1,15.7,8.9l-2.4,2.4c-2-1.9-4.3-3.5-6.9-5
			c-2.6-1.4-5.4-2.6-8.3-3.6c-2.9-1-5.9-1.7-9-2.2c-3.1-0.5-6-0.7-8.9-0.7c-7.7,0-14.7,1.4-21,4.1c-6.3,2.7-11.7,6.4-16.2,11.2
			c-4.5,4.7-7.9,10.3-10.4,16.6c-2.4,6.3-3.6,13.1-3.6,20.3c0,7.2,1.2,14,3.6,20.4c2.4,6.4,5.8,12,10.3,16.8
			c4.5,4.8,10,8.6,16.4,11.3c6.5,2.8,13.8,4.1,22,4.1c7.1,0,13.4-0.7,18.9-2.2c5.5-1.5,10.6-3.4,15.2-5.6V64.8h-27.2V62h30.5v45.7
			C261.5,110,256.3,112.1,250,113.9z"/>
		<path class="st0" d="M287.4,48.3c4.3-3.1,9-4.7,14.1-4.7c0.5,0,0.9,0,1.3,0c0.4,0,0.8,0.1,1.3,0.1v2.8c-0.4-0.1-0.8-0.1-1.1-0.1
			c-0.3,0-0.6,0-0.8,0c-4.3,0-8,1-11.1,2.9c-3.1,1.9-5.6,4.4-7.5,7.5c-2,3.1-3.4,6.6-4.4,10.4c-0.9,3.8-1.4,7.6-1.4,11.3v35.2h-3.3
			V62.9c0-1.1,0-2.4-0.1-4c-0.1-1.6-0.1-3.2-0.1-4.8c-0.1-1.6-0.1-3.2-0.2-4.7c-0.1-1.5-0.2-2.7-0.3-3.7h3.3c0.1,1,0.2,2.2,0.2,3.7
			c0,1.5,0.1,3.1,0.1,4.8c0,1.7,0.1,3.4,0.1,5c0,1.6,0.1,3.1,0.1,4.4h0.3C279.9,56.5,283.1,51.4,287.4,48.3z"/>
		<path class="st0" d="M295,79c0,4.1,0.6,8.2,1.9,12.3c1.2,4,3.1,7.7,5.6,10.9c2.5,3.2,5.7,5.8,9.5,7.8c3.8,2,8.4,3,13.6,3
			c5.3,0,10.1-1.1,14.2-3.2c4.1-2.1,7.7-5.2,10.8-9.2l2.4,2.1c-3.4,4.3-7.3,7.6-11.8,9.9c-4.5,2.3-9.7,3.4-15.6,3.4
			c-5,0-9.6-0.9-13.8-2.7c-4.1-1.8-7.7-4.4-10.7-7.6c-3-3.3-5.3-7.2-7-11.7c-1.6-4.5-2.4-9.5-2.4-14.8c0-5.1,0.8-9.9,2.5-14.2
			c1.7-4.3,4-8.1,6.9-11.2c2.9-3.2,6.4-5.6,10.3-7.3c4-1.7,8.2-2.6,12.8-2.6c5.3,0,10,0.9,13.9,2.8c4,1.9,7.2,4.3,9.9,7.4
			c2.6,3.1,4.6,6.5,5.9,10.4c1.3,3.9,1.9,7.9,1.9,11.9V79H295z M352.5,76.2c-0.1-4.4-0.9-8.5-2.3-12.1c-1.4-3.6-3.4-6.8-5.8-9.4
			c-2.5-2.6-5.4-4.6-8.9-6.1c-3.5-1.4-7.3-2.1-11.5-2.1c-5.1,0-9.5,1.1-13.2,3.2c-3.7,2.1-6.6,4.7-9,7.8c-2.3,3.1-4,6.4-5.1,9.8
			c-1.1,3.4-1.6,6.4-1.6,9H352.5z"/>
		<path class="st0" d="M362.5,79c0,4.1,0.6,8.2,1.8,12.3c1.2,4,3.1,7.7,5.6,10.9c2.5,3.2,5.7,5.8,9.5,7.8c3.8,2,8.4,3,13.6,3
			c5.3,0,10.1-1.1,14.2-3.2c4.1-2.1,7.7-5.2,10.8-9.2l2.4,2.1c-3.4,4.3-7.3,7.6-11.8,9.9c-4.5,2.3-9.7,3.4-15.6,3.4
			c-5,0-9.6-0.9-13.8-2.7c-4.1-1.8-7.7-4.4-10.7-7.6c-3-3.3-5.3-7.2-7-11.7c-1.6-4.5-2.4-9.5-2.4-14.8c0-5.1,0.8-9.9,2.5-14.2
			c1.7-4.3,4-8.1,6.9-11.2c2.9-3.2,6.4-5.6,10.3-7.3c4-1.7,8.2-2.6,12.8-2.6c5.3,0,10,0.9,13.9,2.8c4,1.9,7.2,4.3,9.9,7.4
			c2.6,3.1,4.6,6.5,5.9,10.4c1.3,3.9,1.9,7.9,1.9,11.9V79H362.5z M420,76.2c-0.1-4.4-0.9-8.5-2.3-12.1c-1.4-3.6-3.4-6.8-5.8-9.4
			c-2.5-2.6-5.4-4.6-8.9-6.1c-3.5-1.4-7.3-2.1-11.5-2.1c-5.1,0-9.5,1.1-13.2,3.2c-3.7,2.1-6.6,4.7-9,7.8c-2.3,3.1-4,6.4-5.1,9.8
			s-1.6,6.4-1.6,9H420z"/>
		<path class="st0" d="M434.8,55.2c1.9-2.5,4-4.6,6.4-6.3c2.4-1.7,4.9-3,7.7-3.9c2.8-0.9,5.6-1.3,8.6-1.3c4.7,0,8.7,0.8,11.8,2.5
			c3.2,1.7,5.7,3.9,7.5,6.7c1.9,2.8,3.2,5.9,4,9.3c0.8,3.5,1.2,7,1.2,10.5v41.1h-3.3V72.9c0-2.8-0.3-5.7-0.9-8.9
			c-0.6-3.2-1.7-6-3.3-8.6c-1.6-2.6-3.8-4.7-6.6-6.4c-2.8-1.7-6.3-2.6-10.5-2.6c-3.8,0-7.3,0.8-10.6,2.3c-3.3,1.5-6.2,3.7-8.6,6.6
			c-2.4,2.9-4.3,6.3-5.8,10.4c-1.4,4.1-2.1,8.8-2.1,14v34h-3.3V62.9c0-1.1,0-2.4-0.1-4c-0.1-1.6-0.1-3.2-0.1-4.8
			c-0.1-1.6-0.1-3.2-0.2-4.7c-0.1-1.5-0.2-2.7-0.3-3.7h3.3c0.1,1,0.2,2.2,0.2,3.7c0,1.5,0.1,3.1,0.1,4.8c0,1.7,0.1,3.4,0.1,5
			c0,1.6,0.1,3.1,0.1,4.4h0.3C431.5,60.4,433,57.6,434.8,55.2z"/>
	</g>
	<g>
		<g>
			<path class="st2" d="M338,123.7h2.8l2.6,7.3h0l2.7-7.3h2.7l-4,10.1h-2.7L338,123.7z"/>
			<path class="st2" d="M358.2,128.9c0,0.1,0,0.2,0,0.3c0,0.1,0,0.2,0,0.3h-7.7c0,0.4,0.1,0.7,0.3,1c0.2,0.3,0.4,0.6,0.6,0.8
				c0.3,0.2,0.6,0.4,0.9,0.5s0.7,0.2,1.1,0.2c0.6,0,1.2-0.1,1.6-0.3c0.4-0.2,0.8-0.5,1.1-1l1.7,1.3c-1,1.3-2.4,2-4.3,2
				c-0.8,0-1.5-0.1-2.2-0.4c-0.7-0.2-1.2-0.6-1.7-1c-0.5-0.4-0.9-1-1.1-1.6c-0.3-0.7-0.4-1.4-0.4-2.2c0-0.8,0.1-1.6,0.4-2.2
				c0.3-0.7,0.6-1.2,1.1-1.7c0.5-0.5,1-0.8,1.7-1.1s1.4-0.4,2.1-0.4c0.7,0,1.3,0.1,1.9,0.3c0.6,0.2,1.1,0.6,1.5,1
				c0.4,0.5,0.8,1,1,1.7C358.1,127.2,358.2,128,358.2,128.9z M355.7,127.7c0-0.3,0-0.6-0.1-0.9c-0.1-0.3-0.2-0.6-0.4-0.8
				c-0.2-0.2-0.4-0.4-0.7-0.5c-0.3-0.1-0.7-0.2-1.1-0.2c-0.8,0-1.4,0.2-1.9,0.7c-0.5,0.5-0.8,1-0.9,1.8H355.7z"/>
			<path class="st2" d="M370.1,123.7v9.2c0,0.9-0.1,1.7-0.3,2.5s-0.6,1.4-1,1.9c-0.5,0.5-1.1,0.9-1.8,1.2c-0.7,0.3-1.6,0.4-2.5,0.4
				c-0.4,0-0.8,0-1.3-0.1c-0.5-0.1-0.9-0.2-1.3-0.3c-0.4-0.1-0.9-0.3-1.3-0.5c-0.4-0.2-0.8-0.4-1.1-0.7l1.4-2c0.5,0.5,1,0.8,1.7,1.1
				c0.6,0.2,1.2,0.4,1.9,0.4c0.6,0,1.1-0.1,1.5-0.3c0.4-0.2,0.7-0.4,1-0.7c0.2-0.3,0.4-0.7,0.5-1.1c0.1-0.4,0.2-0.9,0.2-1.4v-0.7h0
				c-0.4,0.5-0.8,0.9-1.4,1.1c-0.6,0.3-1.2,0.4-1.9,0.4c-0.8,0-1.4-0.1-2.1-0.4s-1.1-0.7-1.6-1.1s-0.8-1-1-1.7
				c-0.2-0.6-0.4-1.3-0.4-2c0-0.7,0.1-1.4,0.3-2.1c0.2-0.6,0.6-1.2,1-1.7c0.4-0.5,0.9-0.9,1.6-1.1s1.3-0.4,2-0.4
				c0.7,0,1.4,0.1,2,0.4c0.6,0.3,1.1,0.7,1.5,1.4h0v-1.5H370.1z M364.7,125.5c-0.5,0-0.9,0.1-1.2,0.3c-0.4,0.2-0.7,0.4-0.9,0.7
				c-0.2,0.3-0.4,0.6-0.6,1s-0.2,0.8-0.2,1.3c0,0.4,0.1,0.8,0.2,1.2s0.3,0.7,0.6,1c0.2,0.3,0.5,0.5,0.9,0.7c0.4,0.2,0.8,0.3,1.2,0.3
				c0.5,0,0.9-0.1,1.2-0.3s0.7-0.4,0.9-0.7s0.5-0.6,0.6-1c0.1-0.4,0.2-0.8,0.2-1.2c0-0.4-0.1-0.8-0.2-1.2c-0.1-0.4-0.3-0.7-0.6-1
				s-0.6-0.5-0.9-0.7C365.6,125.6,365.2,125.5,364.7,125.5z"/>
			<path class="st2" d="M377.7,132.5L377.7,132.5c-0.3,0.4-0.7,0.8-1.3,1.1c-0.6,0.3-1.2,0.4-1.9,0.4c-0.4,0-0.8-0.1-1.3-0.2
				c-0.4-0.1-0.8-0.3-1.2-0.5c-0.4-0.2-0.7-0.6-0.9-1c-0.2-0.4-0.4-0.9-0.4-1.5c0-0.8,0.2-1.4,0.6-1.8s1-0.8,1.6-1s1.4-0.4,2.2-0.5
				c0.8-0.1,1.6-0.1,2.4-0.1v-0.3c0-0.6-0.2-1.1-0.7-1.4s-1-0.5-1.6-0.5c-0.5,0-1,0.1-1.5,0.3c-0.5,0.2-0.9,0.5-1.2,0.8l-1.3-1.5
				c0.6-0.5,1.2-0.9,2-1.2c0.7-0.3,1.5-0.4,2.3-0.4c0.9,0,1.6,0.1,2.2,0.4c0.6,0.3,1,0.6,1.4,1s0.6,0.9,0.7,1.4
				c0.1,0.5,0.2,1,0.2,1.5v6.1h-2.4V132.5z M377.6,129.2h-0.6c-0.4,0-0.8,0-1.3,0.1c-0.4,0-0.9,0.1-1.2,0.2
				c-0.4,0.1-0.7,0.3-0.9,0.5c-0.3,0.2-0.4,0.5-0.4,0.9c0,0.2,0.1,0.4,0.2,0.6s0.2,0.3,0.4,0.4s0.4,0.2,0.6,0.2s0.4,0.1,0.6,0.1
				c0.9,0,1.5-0.2,2-0.7c0.4-0.5,0.7-1.1,0.7-1.9V129.2z"/>
			<path class="st2" d="M381.3,123.7h2.4v1.6h0c0.2-0.5,0.6-0.9,1.2-1.3c0.6-0.4,1.2-0.6,2-0.6c0.7,0,1.2,0.1,1.7,0.3
				c0.5,0.2,0.9,0.5,1.2,0.9s0.5,0.8,0.7,1.3c0.1,0.5,0.2,1,0.2,1.5v6.3H388v-5.6c0-0.3,0-0.6-0.1-0.9c0-0.3-0.1-0.6-0.3-0.9
				c-0.1-0.3-0.3-0.5-0.6-0.6c-0.2-0.2-0.6-0.3-1-0.3s-0.8,0.1-1.1,0.2c-0.3,0.2-0.5,0.4-0.7,0.6c-0.2,0.3-0.3,0.5-0.4,0.9
				s-0.1,0.7-0.1,1v5.5h-2.5V123.7z"/>
			<path class="st2" d="M396.2,123.7h2.4v1.7h0c0.3-0.6,0.7-1.1,1.2-1.4c0.5-0.4,1.1-0.5,1.8-0.5c0.1,0,0.2,0,0.3,0
				c0.1,0,0.2,0,0.3,0.1v2.3c-0.2,0-0.3-0.1-0.4-0.1s-0.2,0-0.3,0c-0.6,0-1,0.1-1.4,0.3s-0.6,0.5-0.8,0.8c-0.2,0.3-0.3,0.6-0.4,0.9
				c-0.1,0.3-0.1,0.6-0.1,0.7v5.4h-2.5V123.7z"/>
			<path class="st2" d="M412.3,128.9c0,0.1,0,0.2,0,0.3c0,0.1,0,0.2,0,0.3h-7.7c0,0.4,0.1,0.7,0.3,1c0.2,0.3,0.4,0.6,0.6,0.8
				c0.3,0.2,0.6,0.4,0.9,0.5s0.7,0.2,1.1,0.2c0.6,0,1.2-0.1,1.6-0.3c0.4-0.2,0.8-0.5,1.1-1l1.7,1.3c-1,1.3-2.4,2-4.3,2
				c-0.8,0-1.5-0.1-2.2-0.4c-0.7-0.2-1.2-0.6-1.7-1c-0.5-0.4-0.9-1-1.1-1.6c-0.3-0.7-0.4-1.4-0.4-2.2c0-0.8,0.1-1.6,0.4-2.2
				c0.3-0.7,0.6-1.2,1.1-1.7c0.5-0.5,1-0.8,1.7-1.1s1.4-0.4,2.1-0.4c0.7,0,1.3,0.1,1.9,0.3c0.6,0.2,1.1,0.6,1.5,1
				c0.4,0.5,0.8,1,1,1.7C412.2,127.2,412.3,128,412.3,128.9z M409.8,127.7c0-0.3,0-0.6-0.1-0.9c-0.1-0.3-0.2-0.6-0.4-0.8
				c-0.2-0.2-0.4-0.4-0.7-0.5c-0.3-0.1-0.7-0.2-1.1-0.2c-0.8,0-1.4,0.2-1.9,0.7c-0.5,0.5-0.8,1-0.9,1.8H409.8z"/>
			<path class="st2" d="M419.4,126.4c-0.2-0.3-0.5-0.5-0.9-0.8c-0.4-0.2-0.8-0.3-1.3-0.3c-0.4,0-0.8,0.1-1.1,0.3s-0.5,0.4-0.5,0.8
				c0,0.4,0.2,0.7,0.6,0.8s0.9,0.3,1.6,0.5c0.4,0.1,0.8,0.2,1.1,0.3c0.4,0.1,0.7,0.3,1.1,0.6c0.3,0.2,0.6,0.5,0.8,0.9
				c0.2,0.3,0.3,0.8,0.3,1.2c0,0.6-0.1,1.1-0.3,1.6c-0.2,0.4-0.5,0.8-0.9,1c-0.4,0.3-0.8,0.5-1.3,0.6c-0.5,0.1-1,0.2-1.6,0.2
				c-0.8,0-1.5-0.1-2.3-0.4c-0.7-0.3-1.4-0.7-1.8-1.2l1.7-1.6c0.3,0.4,0.6,0.7,1.1,0.9c0.4,0.2,0.9,0.4,1.5,0.4c0.2,0,0.4,0,0.6-0.1
				s0.4-0.1,0.5-0.2c0.2-0.1,0.3-0.2,0.4-0.4c0.1-0.2,0.1-0.3,0.1-0.6c0-0.4-0.2-0.7-0.6-0.9c-0.4-0.2-1-0.4-1.7-0.5
				c-0.4-0.1-0.7-0.2-1.1-0.3c-0.4-0.1-0.7-0.3-1-0.5c-0.3-0.2-0.5-0.5-0.7-0.8s-0.3-0.7-0.3-1.2c0-0.6,0.1-1,0.3-1.4
				c0.2-0.4,0.5-0.7,0.9-1c0.4-0.3,0.8-0.5,1.3-0.6s1-0.2,1.5-0.2c0.7,0,1.4,0.1,2.1,0.4s1.2,0.6,1.6,1.2L419.4,126.4z"/>
			<path class="st2" d="M421.3,125.7v-2h1.8v-2.9h2.5v2.9h2.5v2h-2.5v4.7c0,0.4,0.1,0.8,0.2,1.1s0.5,0.4,1.1,0.4
				c0.2,0,0.3,0,0.5-0.1c0.2,0,0.4-0.1,0.5-0.2l0.1,2c-0.2,0.1-0.5,0.2-0.8,0.2c-0.3,0-0.6,0.1-0.9,0.1c-0.7,0-1.2-0.1-1.6-0.3
				c-0.4-0.2-0.8-0.4-1-0.8s-0.4-0.7-0.5-1.1c-0.1-0.4-0.1-0.9-0.1-1.4v-4.7H421.3z"/>
			<path class="st2" d="M435.8,132.5L435.8,132.5c-0.3,0.4-0.7,0.8-1.3,1.1c-0.6,0.3-1.2,0.4-1.9,0.4c-0.4,0-0.8-0.1-1.3-0.2
				c-0.4-0.1-0.8-0.3-1.2-0.5c-0.4-0.2-0.7-0.6-0.9-1c-0.2-0.4-0.4-0.9-0.4-1.5c0-0.8,0.2-1.4,0.6-1.8c0.4-0.4,1-0.8,1.6-1
				s1.4-0.4,2.2-0.5c0.8-0.1,1.6-0.1,2.4-0.1v-0.3c0-0.6-0.2-1.1-0.7-1.4s-1-0.5-1.6-0.5c-0.5,0-1,0.1-1.5,0.3
				c-0.5,0.2-0.9,0.5-1.2,0.8l-1.3-1.5c0.6-0.5,1.2-0.9,2-1.2c0.7-0.3,1.5-0.4,2.3-0.4c0.9,0,1.6,0.1,2.2,0.4s1,0.6,1.4,1
				c0.3,0.4,0.6,0.9,0.7,1.4c0.1,0.5,0.2,1,0.2,1.5v6.1h-2.4V132.5z M435.7,129.2h-0.6c-0.4,0-0.8,0-1.3,0.1c-0.4,0-0.9,0.1-1.2,0.2
				s-0.7,0.3-0.9,0.5c-0.3,0.2-0.4,0.5-0.4,0.9c0,0.2,0.1,0.4,0.2,0.6c0.1,0.2,0.2,0.3,0.4,0.4c0.2,0.1,0.4,0.2,0.6,0.2
				c0.2,0,0.4,0.1,0.6,0.1c0.9,0,1.5-0.2,2-0.7c0.4-0.5,0.7-1.1,0.7-1.9V129.2z"/>
			<path class="st2" d="M449,133.8h-2.4v-1.6h0c-0.2,0.5-0.6,0.9-1.2,1.3c-0.6,0.4-1.2,0.6-2,0.6c-0.7,0-1.2-0.1-1.7-0.3
				c-0.5-0.2-0.9-0.5-1.2-0.9s-0.5-0.8-0.7-1.3s-0.2-1-0.2-1.5v-6.3h2.5v5.6c0,0.3,0,0.6,0.1,0.9c0,0.3,0.1,0.6,0.3,0.9
				c0.1,0.3,0.3,0.5,0.6,0.6c0.2,0.2,0.6,0.3,1,0.3c0.4,0,0.7-0.1,1-0.2c0.3-0.2,0.5-0.4,0.7-0.6c0.2-0.3,0.3-0.5,0.4-0.9
				c0.1-0.3,0.1-0.7,0.1-1v-5.5h2.5V133.8z"/>
			<path class="st2" d="M450.7,123.7h2.4v1.7h0c0.3-0.6,0.7-1.1,1.2-1.4c0.5-0.4,1.1-0.5,1.8-0.5c0.1,0,0.2,0,0.3,0
				c0.1,0,0.2,0,0.3,0.1v2.3c-0.2,0-0.3-0.1-0.4-0.1c-0.1,0-0.2,0-0.3,0c-0.6,0-1,0.1-1.4,0.3c-0.4,0.2-0.6,0.5-0.8,0.8
				s-0.3,0.6-0.4,0.9s-0.1,0.6-0.1,0.7v5.4h-2.5V123.7z"/>
			<path class="st2" d="M463.5,132.5L463.5,132.5c-0.3,0.4-0.7,0.8-1.3,1.1c-0.6,0.3-1.2,0.4-1.9,0.4c-0.4,0-0.8-0.1-1.3-0.2
				c-0.4-0.1-0.8-0.3-1.2-0.5c-0.4-0.2-0.7-0.6-0.9-1c-0.2-0.4-0.4-0.9-0.4-1.5c0-0.8,0.2-1.4,0.6-1.8s1-0.8,1.6-1s1.4-0.4,2.2-0.5
				c0.8-0.1,1.6-0.1,2.4-0.1v-0.3c0-0.6-0.2-1.1-0.7-1.4s-1-0.5-1.6-0.5c-0.5,0-1,0.1-1.5,0.3c-0.5,0.2-0.9,0.5-1.2,0.8l-1.3-1.5
				c0.6-0.5,1.2-0.9,2-1.2c0.7-0.3,1.5-0.4,2.3-0.4c0.9,0,1.6,0.1,2.2,0.4c0.6,0.3,1,0.6,1.4,1s0.6,0.9,0.7,1.4
				c0.1,0.5,0.2,1,0.2,1.5v6.1h-2.4V132.5z M463.5,129.2h-0.6c-0.4,0-0.8,0-1.3,0.1c-0.4,0-0.9,0.1-1.2,0.2
				c-0.4,0.1-0.7,0.3-0.9,0.5c-0.3,0.2-0.4,0.5-0.4,0.9c0,0.2,0.1,0.4,0.2,0.6s0.2,0.3,0.4,0.4s0.4,0.2,0.6,0.2s0.4,0.1,0.6,0.1
				c0.9,0,1.5-0.2,2-0.7c0.4-0.5,0.7-1.1,0.7-1.9V129.2z"/>
			<path class="st2" d="M467.1,123.7h2.4v1.6h0c0.2-0.5,0.6-0.9,1.2-1.3c0.6-0.4,1.2-0.6,2-0.6c0.7,0,1.2,0.1,1.7,0.3
				c0.5,0.2,0.9,0.5,1.2,0.9s0.5,0.8,0.7,1.3c0.1,0.5,0.2,1,0.2,1.5v6.3h-2.5v-5.6c0-0.3,0-0.6-0.1-0.9c0-0.3-0.1-0.6-0.3-0.9
				c-0.1-0.3-0.3-0.5-0.6-0.6c-0.2-0.2-0.6-0.3-1-0.3s-0.8,0.1-1.1,0.2c-0.3,0.2-0.5,0.4-0.7,0.6c-0.2,0.3-0.3,0.5-0.4,0.9
				s-0.1,0.7-0.1,1v5.5h-2.5V123.7z"/>
			<path class="st2" d="M477.1,125.7v-2h1.8v-2.9h2.5v2.9h2.5v2h-2.5v4.7c0,0.4,0.1,0.8,0.2,1.1s0.5,0.4,1.1,0.4
				c0.2,0,0.3,0,0.5-0.1c0.2,0,0.4-0.1,0.5-0.2l0.1,2c-0.2,0.1-0.5,0.2-0.8,0.2c-0.3,0-0.6,0.1-0.9,0.1c-0.7,0-1.2-0.1-1.6-0.3
				c-0.4-0.2-0.8-0.4-1-0.8s-0.4-0.7-0.5-1.1c-0.1-0.4-0.1-0.9-0.1-1.4v-4.7H477.1z"/>
		</g>
	</g>
</g>
</svg>
